<svg width="22" height="26" viewBox="0 0 22 26" fill="none" xmlns="http://www.w3.org/2000/svg">
<path fill-rule="evenodd" clip-rule="evenodd" d="M6.42622 0.381017C6.45823 0.420278 6.70841 0.863221 6.98215 1.3654C7.25595 1.86757 7.50071 2.30099 7.52604 2.32855C7.55207 2.35674 7.75465 2.31445 7.99004 2.23165C8.93676 1.89867 9.58098 1.78808 10.5764 1.78762C11.5706 1.78711 12.2112 1.89765 13.16 2.23342C13.3883 2.31423 13.5921 2.3633 13.6129 2.34253C13.6337 2.3217 13.8842 1.87739 14.1696 1.35513C14.4551 0.832862 14.7327 0.37765 14.7867 0.343639C14.9143 0.263176 15.0889 0.369375 15.0734 0.517974C15.0673 0.57658 14.8298 1.05245 14.5456 1.57546C14.2614 2.09846 14.0297 2.54768 14.0308 2.57365C14.0319 2.59961 14.2197 2.72932 14.4483 2.86194C15.579 3.51768 16.646 4.76667 17.1184 5.98719C17.3328 6.54136 17.5081 7.35431 17.5091 7.79954L17.5098 8.12767H10.5584H3.60707L3.6279 7.77101C3.71578 6.26419 4.3968 4.84468 5.56813 3.72688C5.99024 3.32406 6.62892 2.85635 6.96697 2.7025C7.05331 2.66318 7.1239 2.6084 7.1239 2.58072C7.1239 2.5531 6.96041 2.22977 6.76057 1.86232C6.05809 0.570703 6.02037 0.487273 6.09747 0.39437C6.18324 0.291025 6.34741 0.284348 6.42622 0.381017ZM7.01417 4.65106C6.77449 4.89068 6.77073 5.18965 7.00412 5.43954C7.40198 5.86547 8.09847 5.46932 7.95524 4.89861C7.84846 4.4733 7.32866 4.33657 7.01417 4.65106ZM13.3832 4.61328C12.9845 4.98284 13.2209 5.61678 13.7575 5.61678C14.0638 5.61678 14.3142 5.3601 14.3142 5.04613C14.3142 4.55919 13.7331 4.28898 13.3832 4.61328ZM2.16942 8.54875C2.44664 8.68303 2.75748 8.99021 2.91578 9.28644L3.04372 9.52577L3.06004 13.0501C3.07088 15.3827 3.0561 16.6496 3.0165 16.7968C2.92331 17.1429 2.61698 17.5503 2.30632 17.7416C2.05043 17.8991 1.98156 17.9144 1.53148 17.9144C1.0814 17.9144 1.0127 17.8991 0.758583 17.742C0.427717 17.5374 0.131318 17.169 0.0476603 16.8584C0.00754318 16.7093 -0.00729258 15.4373 0.00332161 13.0516L0.0192424 9.46871L0.176117 9.20187C0.363406 8.88327 0.671445 8.617 0.987246 8.50087C1.28638 8.39079 1.89419 8.41539 2.16942 8.54875ZM20.291 8.5475C20.5764 8.69564 20.8708 8.97777 21.0085 9.23502C21.1328 9.4674 21.1336 9.48862 21.1494 13.0516C21.16 15.4373 21.1452 16.7093 21.1051 16.8584C21.0225 17.165 20.7262 17.5367 20.407 17.734C20.0975 17.9254 19.5649 17.9945 19.1872 17.8923C18.848 17.8004 18.4744 17.4898 18.279 17.1371L18.109 16.8302L18.0927 13.2996C18.0739 9.23006 18.0618 9.35013 18.5351 8.87688C18.6899 8.72212 18.9266 8.55514 19.0618 8.50544C19.3729 8.39102 20.033 8.41362 20.291 8.5475ZM17.4813 13.8913V19.0557L17.3333 19.3696C17.1472 19.7642 16.8823 20.029 16.491 20.2112C16.2314 20.3321 16.0753 20.358 15.4517 20.3832L14.718 20.413L14.7015 22.3023C14.6854 24.1554 14.6825 24.1965 14.5517 24.4484C14.2322 25.0637 13.7661 25.3279 13.0571 25.2957C12.6681 25.278 12.585 25.2534 12.3332 25.0817C12.1768 24.975 11.9615 24.7596 11.8548 24.6032L11.6606 24.3189L11.6436 22.3578L11.6265 20.3968H10.5736H9.52066L9.52009 22.2657C9.51957 24.1061 9.51752 24.1389 9.38564 24.4221C9.22768 24.7613 8.79455 25.1646 8.5005 25.2464C7.8354 25.4311 7.16054 25.2215 6.77404 24.7101C6.47239 24.3109 6.43912 24.0525 6.43912 22.1078V20.414L5.69721 20.381C5.07588 20.3534 4.90662 20.3254 4.65576 20.2092C4.09293 19.9485 3.79019 19.5456 3.70288 18.9415C3.63851 18.496 3.61791 8.79944 3.6812 8.73616C3.70225 8.7151 6.81587 8.70437 10.6004 8.71236L17.4813 8.72685V13.8913Z" fill="#5FCF65"/>
</svg>
