<svg width="21" height="26" viewBox="0 0 21 26" fill="none" xmlns="http://www.w3.org/2000/svg">
<path fill-rule="evenodd" clip-rule="evenodd" d="M15.1409 0.416921C15.1633 0.580642 15.1577 1.16036 15.1316 1.3708C14.972 2.65705 14.293 3.9543 13.3211 4.8298C12.4559 5.6092 11.2536 6.11283 10.366 6.06768C10.2383 6.06118 10.1282 6.05015 10.1212 6.04315C10.0917 6.01367 10.0711 5.81941 10.0702 5.56245C10.0659 4.37376 10.6661 3.00416 11.6268 2.01027C12.1029 1.5178 12.6224 1.14026 13.2513 0.829767C13.8471 0.535655 14.5539 0.329288 15.0115 0.315876L15.1266 0.3125L15.1409 0.416921ZM15.1633 6.36666C16.4552 6.44907 17.5241 6.83358 18.4972 7.56601C18.7403 7.74902 19.316 8.33072 19.5161 8.59558C19.6055 8.71393 19.6786 8.81742 19.6786 8.82555C19.6786 8.8337 19.6052 8.88996 19.5155 8.95056C18.4274 9.68554 17.5887 10.7888 17.2286 11.959C16.8945 13.0448 16.9056 14.258 17.2597 15.3464C17.6658 16.5949 18.5412 17.6403 19.8024 18.383C19.9138 18.4486 20.0792 18.5361 20.17 18.5776C20.3348 18.6528 20.335 18.653 20.319 18.7264C20.2453 19.0654 19.8022 20.1328 19.4665 20.7804C19.1094 21.4692 18.8434 21.898 18.3116 22.6421C17.2229 24.1657 16.4864 24.8404 15.5806 25.1441C15.2702 25.2481 15.032 25.2765 14.5814 25.263C13.9791 25.2451 13.6383 25.1582 12.8804 24.8294C11.9237 24.4144 11.448 24.3024 10.6431 24.3024C9.83618 24.3024 9.37538 24.4094 8.35083 24.8349C7.59799 25.1475 7.31418 25.2339 6.85163 25.2914C6.13452 25.3805 5.4671 25.1883 4.81438 24.7047C4.17651 24.2322 3.22522 23.1005 2.36676 21.7931C1.41911 20.3498 0.645203 18.4157 0.268634 16.5495C0.0574514 15.503 0.00094233 14.942 1.96426e-05 13.8828C-0.000745513 13.0006 0.0204317 12.7203 0.136083 12.0824C0.639172 9.3071 2.35429 7.28327 4.76937 6.61513C5.27313 6.47576 5.96051 6.39526 6.42345 6.42141C7.10883 6.46012 7.58755 6.5897 8.75268 7.05181C9.72764 7.43853 9.99504 7.50779 10.4241 7.48488C10.7677 7.46654 11.1025 7.36298 12.0632 6.97792C12.956 6.6201 13.7205 6.41655 14.3556 6.36756C14.6897 6.34176 14.7719 6.34168 15.1633 6.36666Z" fill="black"/>
</svg>
