<svg width="28" height="28" viewBox="0 0 28 28" fill="none" xmlns="http://www.w3.org/2000/svg">
<rect width="28" height="28" rx="14" fill="#0077B6"/>
<path d="M14 18.6665V24.4998" stroke="white" stroke-width="2" stroke-linecap="round" stroke-linejoin="round"/>
<path d="M18.6667 16.3335V24.5002" stroke="white" stroke-width="2" stroke-linecap="round" stroke-linejoin="round"/>
<path d="M23.3333 11.6665V24.4998" stroke="white" stroke-width="2" stroke-linecap="round" stroke-linejoin="round"/>
<path d="M25.6666 3.5L15.5796 13.587C15.5254 13.6413 15.461 13.6844 15.3902 13.7138C15.3193 13.7432 15.2433 13.7584 15.1666 13.7584C15.0899 13.7584 15.0139 13.7432 14.943 13.7138C14.8721 13.6844 14.8078 13.6413 14.7536 13.587L10.9129 9.74633C10.8035 9.63698 10.6552 9.57554 10.5005 9.57554C10.3458 9.57554 10.1975 9.63698 10.0881 9.74633L2.33325 17.5" stroke="white" stroke-width="2" stroke-linecap="round" stroke-linejoin="round"/>
<path d="M4.66675 21V24.5" stroke="white" stroke-width="2" stroke-linecap="round" stroke-linejoin="round"/>
<path d="M9.33325 16.3335V24.5002" stroke="white" stroke-width="2" stroke-linecap="round" stroke-linejoin="round"/>
</svg>
