<svg width="38" height="38" viewBox="0 0 38 38" fill="none" xmlns="http://www.w3.org/2000/svg">
<path d="M19.0001 12.6667C18.2059 13.5157 17.7728 14.6401 17.7922 15.8025C17.8115 16.9649 18.2819 18.0742 19.1039 18.8962C19.926 19.7183 21.0353 20.1886 22.1977 20.208C23.36 20.2274 24.4844 19.7943 25.3334 19.0001C25.3334 20.2527 24.962 21.4772 24.2661 22.5187C23.5701 23.5602 22.581 24.372 21.4237 24.8513C20.2665 25.3307 18.9931 25.4561 17.7645 25.2117C16.536 24.9673 15.4075 24.3642 14.5217 23.4784C13.636 22.5927 13.0328 21.4642 12.7884 20.2357C12.5441 19.0071 12.6695 17.7337 13.1488 16.5764C13.6282 15.4192 14.44 14.43 15.4815 13.7341C16.523 13.0382 17.7475 12.6667 19.0001 12.6667Z" stroke="black" stroke-width="2.375" stroke-linecap="round" stroke-linejoin="round"/>
<path d="M19 3.16675V6.33341" stroke="black" stroke-width="2.375" stroke-linecap="round" stroke-linejoin="round"/>
<path d="M19 31.6667V34.8334" stroke="black" stroke-width="2.375" stroke-linecap="round" stroke-linejoin="round"/>
<path d="M7.7583 7.7583L9.97497 9.97497" stroke="black" stroke-width="2.375" stroke-linecap="round" stroke-linejoin="round"/>
<path d="M28.0249 28.0249L30.2416 30.2416" stroke="black" stroke-width="2.375" stroke-linecap="round" stroke-linejoin="round"/>
<path d="M3.16675 19H6.33341" stroke="black" stroke-width="2.375" stroke-linecap="round" stroke-linejoin="round"/>
<path d="M31.6667 19H34.8334" stroke="black" stroke-width="2.375" stroke-linecap="round" stroke-linejoin="round"/>
<path d="M9.97497 28.0249L7.7583 30.2416" stroke="black" stroke-width="2.375" stroke-linecap="round" stroke-linejoin="round"/>
<path d="M30.2416 7.7583L28.0249 9.97497" stroke="black" stroke-width="2.375" stroke-linecap="round" stroke-linejoin="round"/>
</svg>
