<svg width="32" height="28" viewBox="0 0 32 28" fill="none" xmlns="http://www.w3.org/2000/svg">
<path d="M21.334 19.3325L16.0007 13.9992M16.0007 13.9992L10.6673 19.3325M16.0007 13.9992V25.9992M27.1873 22.5192C28.4878 21.8102 29.5151 20.6883 30.1072 19.3307C30.6992 17.973 30.8223 16.4568 30.457 15.0214C30.0916 13.586 29.2587 12.3132 28.0896 11.4038C26.9205 10.4943 25.4818 10.0001 24.0007 9.99916H22.3207C21.9171 8.43815 21.1649 6.98894 20.1206 5.76049C19.0763 4.53203 17.7671 3.5563 16.2915 2.90664C14.8158 2.25698 13.2121 1.95031 11.6008 2.00967C9.98959 2.06904 8.41277 2.4929 6.98892 3.24939C5.56506 4.00587 4.33123 5.0753 3.38018 6.37727C2.42912 7.67925 1.7856 9.17988 1.49799 10.7664C1.21037 12.3528 1.28615 13.9839 1.71963 15.5368C2.15311 17.0898 2.933 18.5243 4.00068 19.7325" stroke="#0070BA" stroke-width="2.5" stroke-linecap="round" stroke-linejoin="round"/>
</svg>
